<?xml version="1.0" standalone="no"?>
<!DOCTYPE svg PUBLIC "-//W3C//DTD SVG 20010904//EN"
 "http://www.w3.org/TR/2001/REC-SVG-20010904/DTD/svg10.dtd">
<svg version="1.0" xmlns="http://www.w3.org/2000/svg"
 width="512.000000pt" height="512.000000pt" viewBox="0 0 512.000000 512.000000"
 preserveAspectRatio="xMidYMid meet">
<metadata>
Created by potrace 1.11, written by Peter Selinger 2001-2013
</metadata>
<g transform="translate(0.000000,512.000000) scale(0.100000,-0.100000)"
fill="#000000" stroke="none">
<path d="M0 2560 l0 -2560 2560 0 2560 0 0 2560 0 2560 -2560 0 -2560 0 0
-2560z m328 38 l2 -298 150 0 150 0 0 -40 0 -40 -195 0 -195 0 0 341 0 340 43
-3 42 -3 3 -297z m682 298 c0 -2 52 -154 115 -339 63 -185 115 -339 115 -342
0 -4 -19 -5 -41 -3 l-42 3 -31 90 -31 90 -139 0 -139 0 -31 -90 -31 -90 -40 0
c-30 0 -39 4 -37 15 4 19 201 595 218 638 12 30 16 32 63 32 28 0 51 -2 51 -4z
m548 -213 c45 -120 92 -246 104 -280 13 -35 26 -63 29 -63 3 0 13 24 22 53 9
28 56 154 104 279 l88 228 52 0 51 0 6 -57 c3 -32 11 -161 16 -288 6 -126 13
-254 16 -282 l5 -53 -44 0 -45 0 -6 158 c-4 86 -10 208 -14 270 l-7 112 -100
-270 -100 -270 -45 0 -45 0 -100 268 -100 267 -12 -225 c-6 -124 -12 -244 -12
-267 l-1 -43 -45 0 -45 0 5 58 c3 31 9 152 15 267 6 116 13 243 16 283 l6 72
52 0 51 0 83 -217z m737 -68 c34 -154 64 -287 67 -295 5 -16 9 -4 108 335 33
116 63 218 66 228 4 13 16 17 55 17 42 0 51 -3 59 -22 5 -13 45 -147 89 -298
43 -151 82 -268 85 -260 5 14 126 565 126 575 0 3 18 5 40 5 30 0 40 -4 40
-16 0 -14 -133 -603 -146 -646 -4 -14 -17 -18 -58 -18 l-53 0 -62 208 c-35
114 -75 248 -91 297 l-27 90 -26 -85 c-15 -47 -55 -179 -90 -295 l-63 -210
-55 -3 -54 -3 -74 318 c-41 175 -76 328 -79 341 -4 22 -2 23 38 20 l43 -3 62
-280z m945 -55 l0 -340 -45 0 -45 0 0 340 0 340 45 0 45 0 0 -340z m618 298
l3 -38 -110 0 -111 0 0 -305 0 -305 -40 0 -40 0 -2 303 -3 302 -107 3 -108 3
0 33 c0 18 3 36 7 40 4 3 119 5 257 4 l251 -3 3 -37z m542 2 l0 -40 -105 0
-105 0 -2 -302 -3 -303 -40 0 -40 0 -3 303 -2 302 -105 0 -105 0 0 40 0 40
255 0 255 0 0 -40z m204 -122 c45 -87 83 -158 86 -158 3 0 41 71 85 158 l80
157 48 3 48 3 -111 -220 -110 -221 0 -120 0 -120 -40 0 -40 0 0 120 0 120
-110 221 -111 220 47 -3 47 -3 81 -157z"/>
<path d="M902 2652 c-29 -87 -52 -161 -52 -165 0 -4 49 -7 109 -7 l109 0 -52
160 c-29 88 -54 162 -57 164 -3 3 -28 -66 -57 -152z"/>
</g>
</svg>
